solid ascii
  facet normal -2.220446e-16 -9.109522e-16 -1.000000e+00
    outer loop
      vertex   1.083515e+02 5.198894e+01 2.500000e-01
      vertex   1.083515e+02 3.248894e+01 2.500000e-01
      vertex   6.085148e+01 5.198894e+01 2.500000e-01
    endloop
  endfacet
  facet normal -2.220446e-16 -9.109522e-16 -1.000000e+00
    outer loop
      vertex   6.085148e+01 5.198894e+01 2.500000e-01
      vertex   1.083515e+02 3.248894e+01 2.500000e-01
      vertex   6.085148e+01 3.248894e+01 2.500000e-01
    endloop
  endfacet
  facet normal -2.220446e-16 -9.109522e-16 -1.000000e+00
    outer loop
      vertex   1.335148e+01 5.198894e+01 2.500000e-01
      vertex   6.085148e+01 3.248894e+01 2.500000e-01
      vertex   1.335148e+01 3.248894e+01 2.500000e-01
    endloop
  endfacet
  facet normal -2.220446e-16 -9.109522e-16 -1.000000e+00
    outer loop
      vertex   -3.414852e+01 5.198894e+01 2.500000e-01
      vertex   1.335148e+01 3.248894e+01 2.500000e-01
      vertex   -3.414852e+01 3.248894e+01 2.500000e-01
    endloop
  endfacet
  facet normal -8.180591e-17 -9.109522e-16 -1.000000e+00
    outer loop
      vertex   -8.164852e+01 5.198894e+01 2.500000e-01
      vertex   -3.414852e+01 3.248894e+01 2.500000e-01
      vertex   -8.164852e+01 3.248894e+01 2.500000e-01
    endloop
  endfacet
  facet normal -8.180591e-17 -9.109522e-16 -1.000000e+00
    outer loop
      vertex   -8.164852e+01 5.198894e+01 2.500000e-01
      vertex   -3.414852e+01 5.198894e+01 2.500000e-01
      vertex   -3.414852e+01 3.248894e+01 2.500000e-01
    endloop
  endfacet
  facet normal -2.220446e-16 -9.109522e-16 -1.000000e+00
    outer loop
      vertex   6.085148e+01 5.198894e+01 2.500000e-01
      vertex   6.085148e+01 3.248894e+01 2.500000e-01
      vertex   1.335148e+01 5.198894e+01 2.500000e-01
    endloop
  endfacet
  facet normal -2.220446e-16 -9.109522e-16 -1.000000e+00
    outer loop
      vertex   1.335148e+01 5.198894e+01 2.500000e-01
      vertex   1.335148e+01 3.248894e+01 2.500000e-01
      vertex   -3.414852e+01 5.198894e+01 2.500000e-01
    endloop
  endfacet
  facet normal 0.000000e+00 1.000000e+00 -0.000000e+00
    outer loop
      vertex   1.083515e+02 5.198894e+01 2.500000e-01
      vertex   6.085148e+01 5.198894e+01 2.500000e-01
      vertex   1.083515e+02 5.198894e+01 1.750000e+00
    endloop
  endfacet
  facet normal 0.000000e+00 1.000000e+00 -0.000000e+00
    outer loop
      vertex   1.083515e+02 5.198894e+01 1.750000e+00
      vertex   6.085148e+01 5.198894e+01 2.500000e-01
      vertex   6.085148e+01 5.198894e+01 1.750000e+00
    endloop
  endfacet
  facet normal 0.000000e+00 1.000000e+00 0.000000e+00
    outer loop
      vertex   6.085148e+01 5.198894e+01 1.750000e+00
      vertex   6.085148e+01 5.198894e+01 2.500000e-01
      vertex   1.335148e+01 5.198894e+01 2.500000e-01
    endloop
  endfacet
  facet normal 0.000000e+00 1.000000e+00 0.000000e+00
    outer loop
      vertex   1.335148e+01 5.198894e+01 1.750000e+00
      vertex   1.335148e+01 5.198894e+01 2.500000e-01
      vertex   -3.414852e+01 5.198894e+01 2.500000e-01
    endloop
  endfacet
  facet normal 0.000000e+00 1.000000e+00 0.000000e+00
    outer loop
      vertex   -3.414852e+01 5.198894e+01 1.750000e+00
      vertex   -3.414852e+01 5.198894e+01 2.500000e-01
      vertex   -8.164852e+01 5.198894e+01 2.500000e-01
    endloop
  endfacet
  facet normal 0.000000e+00 1.000000e+00 0.000000e+00
    outer loop
      vertex   -8.164852e+01 5.198894e+01 1.750000e+00
      vertex   -3.414852e+01 5.198894e+01 1.750000e+00
      vertex   -8.164852e+01 5.198894e+01 2.500000e-01
    endloop
  endfacet
  facet normal 0.000000e+00 1.000000e+00 -0.000000e+00
    outer loop
      vertex   6.085148e+01 5.198894e+01 1.750000e+00
      vertex   1.335148e+01 5.198894e+01 2.500000e-01
      vertex   1.335148e+01 5.198894e+01 1.750000e+00
    endloop
  endfacet
  facet normal 0.000000e+00 1.000000e+00 -0.000000e+00
    outer loop
      vertex   1.335148e+01 5.198894e+01 1.750000e+00
      vertex   -3.414852e+01 5.198894e+01 2.500000e-01
      vertex   -3.414852e+01 5.198894e+01 1.750000e+00
    endloop
  endfacet
  facet normal 2.243819e-16 9.109522e-16 1.000000e+00
    outer loop
      vertex   1.083515e+02 3.248894e+01 1.750000e+00
      vertex   1.083515e+02 5.198894e+01 1.750000e+00
      vertex   6.085148e+01 3.248894e+01 1.750000e+00
    endloop
  endfacet
  facet normal 2.243819e-16 9.109522e-16 1.000000e+00
    outer loop
      vertex   6.085148e+01 3.248894e+01 1.750000e+00
      vertex   1.083515e+02 5.198894e+01 1.750000e+00
      vertex   6.085148e+01 5.198894e+01 1.750000e+00
    endloop
  endfacet
  facet normal 2.197073e-16 9.109522e-16 1.000000e+00
    outer loop
      vertex   1.335148e+01 3.248894e+01 1.750000e+00
      vertex   6.085148e+01 5.198894e+01 1.750000e+00
      vertex   1.335148e+01 5.198894e+01 1.750000e+00
    endloop
  endfacet
  facet normal 2.197073e-16 9.109522e-16 1.000000e+00
    outer loop
      vertex   -3.414852e+01 3.248894e+01 1.750000e+00
      vertex   1.335148e+01 5.198894e+01 1.750000e+00
      vertex   -3.414852e+01 5.198894e+01 1.750000e+00
    endloop
  endfacet
  facet normal 8.414322e-17 9.109522e-16 1.000000e+00
    outer loop
      vertex   -8.164852e+01 3.248894e+01 1.750000e+00
      vertex   -3.414852e+01 5.198894e+01 1.750000e+00
      vertex   -8.164852e+01 5.198894e+01 1.750000e+00
    endloop
  endfacet
  facet normal 8.414322e-17 9.109522e-16 1.000000e+00
    outer loop
      vertex   -8.164852e+01 3.248894e+01 1.750000e+00
      vertex   -3.414852e+01 3.248894e+01 1.750000e+00
      vertex   -3.414852e+01 5.198894e+01 1.750000e+00
    endloop
  endfacet
  facet normal 2.197073e-16 9.109522e-16 1.000000e+00
    outer loop
      vertex   6.085148e+01 3.248894e+01 1.750000e+00
      vertex   6.085148e+01 5.198894e+01 1.750000e+00
      vertex   1.335148e+01 3.248894e+01 1.750000e+00
    endloop
  endfacet
  facet normal 2.197073e-16 9.109522e-16 1.000000e+00
    outer loop
      vertex   1.335148e+01 3.248894e+01 1.750000e+00
      vertex   1.335148e+01 5.198894e+01 1.750000e+00
      vertex   -3.414852e+01 3.248894e+01 1.750000e+00
    endloop
  endfacet
  facet normal -0.000000e+00 -1.000000e+00 -0.000000e+00
    outer loop
      vertex   1.083515e+02 3.248894e+01 1.750000e+00
      vertex   6.085148e+01 3.248894e+01 1.750000e+00
      vertex   1.083515e+02 3.248894e+01 2.500000e-01
    endloop
  endfacet
  facet normal -0.000000e+00 -1.000000e+00 -0.000000e+00
    outer loop
      vertex   1.083515e+02 3.248894e+01 2.500000e-01
      vertex   6.085148e+01 3.248894e+01 1.750000e+00
      vertex   6.085148e+01 3.248894e+01 2.500000e-01
    endloop
  endfacet
  facet normal 0.000000e+00 -1.000000e+00 0.000000e+00
    outer loop
      vertex   6.085148e+01 3.248894e+01 2.500000e-01
      vertex   6.085148e+01 3.248894e+01 1.750000e+00
      vertex   1.335148e+01 3.248894e+01 1.750000e+00
    endloop
  endfacet
  facet normal 0.000000e+00 -1.000000e+00 0.000000e+00
    outer loop
      vertex   1.335148e+01 3.248894e+01 2.500000e-01
      vertex   1.335148e+01 3.248894e+01 1.750000e+00
      vertex   -3.414852e+01 3.248894e+01 1.750000e+00
    endloop
  endfacet
  facet normal 0.000000e+00 -1.000000e+00 0.000000e+00
    outer loop
      vertex   -3.414852e+01 3.248894e+01 2.500000e-01
      vertex   -3.414852e+01 3.248894e+01 1.750000e+00
      vertex   -8.164852e+01 3.248894e+01 1.750000e+00
    endloop
  endfacet
  facet normal 0.000000e+00 -1.000000e+00 0.000000e+00
    outer loop
      vertex   -8.164852e+01 3.248894e+01 2.500000e-01
      vertex   -3.414852e+01 3.248894e+01 2.500000e-01
      vertex   -8.164852e+01 3.248894e+01 1.750000e+00
    endloop
  endfacet
  facet normal -0.000000e+00 -1.000000e+00 -0.000000e+00
    outer loop
      vertex   6.085148e+01 3.248894e+01 2.500000e-01
      vertex   1.335148e+01 3.248894e+01 1.750000e+00
      vertex   1.335148e+01 3.248894e+01 2.500000e-01
    endloop
  endfacet
  facet normal -0.000000e+00 -1.000000e+00 -0.000000e+00
    outer loop
      vertex   1.335148e+01 3.248894e+01 2.500000e-01
      vertex   -3.414852e+01 3.248894e+01 1.750000e+00
      vertex   -3.414852e+01 3.248894e+01 2.500000e-01
    endloop
  endfacet
  facet normal -1.000000e+00 0.000000e+00 0.000000e+00
    outer loop
      vertex   -8.164852e+01 3.248894e+01 2.500000e-01
      vertex   -8.164852e+01 3.248894e+01 1.750000e+00
      vertex   -8.164852e+01 5.198894e+01 2.500000e-01
    endloop
  endfacet
  facet normal -1.000000e+00 0.000000e+00 0.000000e+00
    outer loop
      vertex   -8.164852e+01 5.198894e+01 2.500000e-01
      vertex   -8.164852e+01 3.248894e+01 1.750000e+00
      vertex   -8.164852e+01 5.198894e+01 1.750000e+00
    endloop
  endfacet
  facet normal 1.000000e+00 -0.000000e+00 0.000000e+00
    outer loop
      vertex   1.083515e+02 3.248894e+01 1.750000e+00
      vertex   1.083515e+02 3.248894e+01 2.500000e-01
      vertex   1.083515e+02 5.198894e+01 1.750000e+00
    endloop
  endfacet
  facet normal 1.000000e+00 0.000000e+00 0.000000e+00
    outer loop
      vertex   1.083515e+02 5.198894e+01 1.750000e+00
      vertex   1.083515e+02 3.248894e+01 2.500000e-01
      vertex   1.083515e+02 5.198894e+01 2.500000e-01
    endloop
  endfacet
endsolid
