solid ascii
  facet normal -2.220446e-16 -9.109522e-16 -1.000000e+00
    outer loop
      vertex   9.835148e+01 5.198894e+01 2.500000e-01
      vertex   9.835148e+01 3.248894e+01 2.500000e-01
      vertex   5.335148e+01 5.198894e+01 2.500000e-01
    endloop
  endfacet
  facet normal -2.220446e-16 -9.109522e-16 -1.000000e+00
    outer loop
      vertex   5.335148e+01 5.198894e+01 2.500000e-01
      vertex   9.835148e+01 3.248894e+01 2.500000e-01
      vertex   5.335148e+01 3.248894e+01 2.500000e-01
    endloop
  endfacet
  facet normal -2.220446e-16 -9.109522e-16 -1.000000e+00
    outer loop
      vertex   8.351483e+00 5.198894e+01 2.500000e-01
      vertex   5.335148e+01 3.248894e+01 2.500000e-01
      vertex   8.351483e+00 3.248894e+01 2.500000e-01
    endloop
  endfacet
  facet normal -2.220446e-16 -9.109522e-16 -1.000000e+00
    outer loop
      vertex   -3.664852e+01 5.198894e+01 2.500000e-01
      vertex   8.351483e+00 3.248894e+01 2.500000e-01
      vertex   -3.664852e+01 3.248894e+01 2.500000e-01
    endloop
  endfacet
  facet normal -7.401487e-17 -9.109522e-16 -1.000000e+00
    outer loop
      vertex   -8.164852e+01 5.198894e+01 2.500000e-01
      vertex   -3.664852e+01 3.248894e+01 2.500000e-01
      vertex   -8.164852e+01 3.248894e+01 2.500000e-01
    endloop
  endfacet
  facet normal -7.401487e-17 -9.109522e-16 -1.000000e+00
    outer loop
      vertex   -8.164852e+01 5.198894e+01 2.500000e-01
      vertex   -3.664852e+01 5.198894e+01 2.500000e-01
      vertex   -3.664852e+01 3.248894e+01 2.500000e-01
    endloop
  endfacet
  facet normal -2.220446e-16 -9.109522e-16 -1.000000e+00
    outer loop
      vertex   5.335148e+01 5.198894e+01 2.500000e-01
      vertex   5.335148e+01 3.248894e+01 2.500000e-01
      vertex   8.351483e+00 5.198894e+01 2.500000e-01
    endloop
  endfacet
  facet normal -2.220446e-16 -9.109522e-16 -1.000000e+00
    outer loop
      vertex   8.351483e+00 5.198894e+01 2.500000e-01
      vertex   8.351483e+00 3.248894e+01 2.500000e-01
      vertex   -3.664852e+01 5.198894e+01 2.500000e-01
    endloop
  endfacet
  facet normal 0.000000e+00 1.000000e+00 -0.000000e+00
    outer loop
      vertex   9.835148e+01 5.198894e+01 2.500000e-01
      vertex   5.335148e+01 5.198894e+01 2.500000e-01
      vertex   9.835148e+01 5.198894e+01 1.750000e+00
    endloop
  endfacet
  facet normal 0.000000e+00 1.000000e+00 -0.000000e+00
    outer loop
      vertex   9.835148e+01 5.198894e+01 1.750000e+00
      vertex   5.335148e+01 5.198894e+01 2.500000e-01
      vertex   5.335148e+01 5.198894e+01 1.750000e+00
    endloop
  endfacet
  facet normal 0.000000e+00 1.000000e+00 0.000000e+00
    outer loop
      vertex   5.335148e+01 5.198894e+01 1.750000e+00
      vertex   5.335148e+01 5.198894e+01 2.500000e-01
      vertex   8.351483e+00 5.198894e+01 2.500000e-01
    endloop
  endfacet
  facet normal 0.000000e+00 1.000000e+00 0.000000e+00
    outer loop
      vertex   8.351483e+00 5.198894e+01 1.750000e+00
      vertex   8.351483e+00 5.198894e+01 2.500000e-01
      vertex   -3.664852e+01 5.198894e+01 2.500000e-01
    endloop
  endfacet
  facet normal 0.000000e+00 1.000000e+00 0.000000e+00
    outer loop
      vertex   -3.664852e+01 5.198894e+01 1.750000e+00
      vertex   -3.664852e+01 5.198894e+01 2.500000e-01
      vertex   -8.164852e+01 5.198894e+01 2.500000e-01
    endloop
  endfacet
  facet normal 0.000000e+00 1.000000e+00 0.000000e+00
    outer loop
      vertex   -8.164852e+01 5.198894e+01 1.750000e+00
      vertex   -3.664852e+01 5.198894e+01 1.750000e+00
      vertex   -8.164852e+01 5.198894e+01 2.500000e-01
    endloop
  endfacet
  facet normal 0.000000e+00 1.000000e+00 -0.000000e+00
    outer loop
      vertex   5.335148e+01 5.198894e+01 1.750000e+00
      vertex   8.351483e+00 5.198894e+01 2.500000e-01
      vertex   8.351483e+00 5.198894e+01 1.750000e+00
    endloop
  endfacet
  facet normal 0.000000e+00 1.000000e+00 -0.000000e+00
    outer loop
      vertex   8.351483e+00 5.198894e+01 1.750000e+00
      vertex   -3.664852e+01 5.198894e+01 2.500000e-01
      vertex   -3.664852e+01 5.198894e+01 1.750000e+00
    endloop
  endfacet
  facet normal 2.220446e-16 9.109522e-16 1.000000e+00
    outer loop
      vertex   9.835148e+01 3.248894e+01 1.750000e+00
      vertex   9.835148e+01 5.198894e+01 1.750000e+00
      vertex   5.335148e+01 3.248894e+01 1.750000e+00
    endloop
  endfacet
  facet normal 2.220446e-16 9.109522e-16 1.000000e+00
    outer loop
      vertex   5.335148e+01 3.248894e+01 1.750000e+00
      vertex   9.835148e+01 5.198894e+01 1.750000e+00
      vertex   5.335148e+01 5.198894e+01 1.750000e+00
    endloop
  endfacet
  facet normal 2.220446e-16 9.109522e-16 1.000000e+00
    outer loop
      vertex   8.351483e+00 3.248894e+01 1.750000e+00
      vertex   5.335148e+01 5.198894e+01 1.750000e+00
      vertex   8.351483e+00 5.198894e+01 1.750000e+00
    endloop
  endfacet
  facet normal 2.220446e-16 9.109522e-16 1.000000e+00
    outer loop
      vertex   -3.664852e+01 3.248894e+01 1.750000e+00
      vertex   8.351483e+00 5.198894e+01 1.750000e+00
      vertex   -3.664852e+01 5.198894e+01 1.750000e+00
    endloop
  endfacet
  facet normal 7.401487e-17 9.109522e-16 1.000000e+00
    outer loop
      vertex   -8.164852e+01 3.248894e+01 1.750000e+00
      vertex   -3.664852e+01 5.198894e+01 1.750000e+00
      vertex   -8.164852e+01 5.198894e+01 1.750000e+00
    endloop
  endfacet
  facet normal 7.401487e-17 9.109522e-16 1.000000e+00
    outer loop
      vertex   -8.164852e+01 3.248894e+01 1.750000e+00
      vertex   -3.664852e+01 3.248894e+01 1.750000e+00
      vertex   -3.664852e+01 5.198894e+01 1.750000e+00
    endloop
  endfacet
  facet normal 2.220446e-16 9.109522e-16 1.000000e+00
    outer loop
      vertex   5.335148e+01 3.248894e+01 1.750000e+00
      vertex   5.335148e+01 5.198894e+01 1.750000e+00
      vertex   8.351483e+00 3.248894e+01 1.750000e+00
    endloop
  endfacet
  facet normal 2.220446e-16 9.109522e-16 1.000000e+00
    outer loop
      vertex   8.351483e+00 3.248894e+01 1.750000e+00
      vertex   8.351483e+00 5.198894e+01 1.750000e+00
      vertex   -3.664852e+01 3.248894e+01 1.750000e+00
    endloop
  endfacet
  facet normal -0.000000e+00 -1.000000e+00 -0.000000e+00
    outer loop
      vertex   9.835148e+01 3.248894e+01 1.750000e+00
      vertex   5.335148e+01 3.248894e+01 1.750000e+00
      vertex   9.835148e+01 3.248894e+01 2.500000e-01
    endloop
  endfacet
  facet normal -0.000000e+00 -1.000000e+00 -0.000000e+00
    outer loop
      vertex   9.835148e+01 3.248894e+01 2.500000e-01
      vertex   5.335148e+01 3.248894e+01 1.750000e+00
      vertex   5.335148e+01 3.248894e+01 2.500000e-01
    endloop
  endfacet
  facet normal 0.000000e+00 -1.000000e+00 0.000000e+00
    outer loop
      vertex   5.335148e+01 3.248894e+01 2.500000e-01
      vertex   5.335148e+01 3.248894e+01 1.750000e+00
      vertex   8.351483e+00 3.248894e+01 1.750000e+00
    endloop
  endfacet
  facet normal 0.000000e+00 -1.000000e+00 0.000000e+00
    outer loop
      vertex   8.351483e+00 3.248894e+01 2.500000e-01
      vertex   8.351483e+00 3.248894e+01 1.750000e+00
      vertex   -3.664852e+01 3.248894e+01 1.750000e+00
    endloop
  endfacet
  facet normal 0.000000e+00 -1.000000e+00 0.000000e+00
    outer loop
      vertex   -3.664852e+01 3.248894e+01 2.500000e-01
      vertex   -3.664852e+01 3.248894e+01 1.750000e+00
      vertex   -8.164852e+01 3.248894e+01 1.750000e+00
    endloop
  endfacet
  facet normal 0.000000e+00 -1.000000e+00 0.000000e+00
    outer loop
      vertex   -8.164852e+01 3.248894e+01 2.500000e-01
      vertex   -3.664852e+01 3.248894e+01 2.500000e-01
      vertex   -8.164852e+01 3.248894e+01 1.750000e+00
    endloop
  endfacet
  facet normal -0.000000e+00 -1.000000e+00 -0.000000e+00
    outer loop
      vertex   5.335148e+01 3.248894e+01 2.500000e-01
      vertex   8.351483e+00 3.248894e+01 1.750000e+00
      vertex   8.351483e+00 3.248894e+01 2.500000e-01
    endloop
  endfacet
  facet normal -0.000000e+00 -1.000000e+00 -0.000000e+00
    outer loop
      vertex   8.351483e+00 3.248894e+01 2.500000e-01
      vertex   -3.664852e+01 3.248894e+01 1.750000e+00
      vertex   -3.664852e+01 3.248894e+01 2.500000e-01
    endloop
  endfacet
  facet normal -1.000000e+00 0.000000e+00 0.000000e+00
    outer loop
      vertex   -8.164852e+01 3.248894e+01 2.500000e-01
      vertex   -8.164852e+01 3.248894e+01 1.750000e+00
      vertex   -8.164852e+01 5.198894e+01 2.500000e-01
    endloop
  endfacet
  facet normal -1.000000e+00 0.000000e+00 0.000000e+00
    outer loop
      vertex   -8.164852e+01 5.198894e+01 2.500000e-01
      vertex   -8.164852e+01 3.248894e+01 1.750000e+00
      vertex   -8.164852e+01 5.198894e+01 1.750000e+00
    endloop
  endfacet
  facet normal 1.000000e+00 -0.000000e+00 0.000000e+00
    outer loop
      vertex   9.835148e+01 3.248894e+01 1.750000e+00
      vertex   9.835148e+01 3.248894e+01 2.500000e-01
      vertex   9.835148e+01 5.198894e+01 1.750000e+00
    endloop
  endfacet
  facet normal 1.000000e+00 0.000000e+00 0.000000e+00
    outer loop
      vertex   9.835148e+01 5.198894e+01 1.750000e+00
      vertex   9.835148e+01 3.248894e+01 2.500000e-01
      vertex   9.835148e+01 5.198894e+01 2.500000e-01
    endloop
  endfacet
endsolid
